<?xml version="1.0" encoding="utf-8"?>
<!-- Generator: Adobe Illustrator 26.0.0, SVG Export Plug-In . SVG Version: 6.00 Build 0)  -->
<svg version="1.1" id="Layer_1" xmlns="http://www.w3.org/2000/svg" xmlns:xlink="http://www.w3.org/1999/xlink" x="0px" y="0px"
	 viewBox="0 0 612 792" style="enable-background:new 0 0 612 792;" xml:space="preserve">
<style type="text/css">
	.st0{fill:#069447;}
	.st1{fill:#231F20;}
</style>
<g>
	<g>
		<path class="st0" d="M242.89,358.03v-1.83c2.15-0.32,2.52-0.54,2.52-3.82v-9.3c0-4.46-2.09-5.27-3.76-5.27
			c-1.07,0-2.31,0.32-3.97,1.67c0.05,0.65,0.11,1.45,0.11,2.26v10.86c0,3.01,0.16,3.28,2.63,3.6v1.83h-12.07v-1.83
			c2.36-0.32,2.58-0.48,2.58-3.6v-9.78c0-3.82-1.5-5.05-3.49-5.05c-1.34,0-2.63,0.48-4.13,1.61v13.22c0,3.01,0.32,3.28,2.31,3.6
			v1.83h-12.29v-1.83c2.95-0.38,3.11-0.59,3.11-3.82v-11.39c0-3.01-0.05-3.49-2.58-3.87v-1.72c3-0.32,6.06-1.08,9.44-2.04
			c0,1.29,0,2.79,0,4.03c1.18-0.81,2.15-1.5,3.27-2.2c1.66-1.02,2.95-1.67,4.56-1.67c3,0,4.99,1.61,6.01,4.08
			c1.29-0.97,2.36-1.72,3.7-2.63c1.18-0.75,2.68-1.45,4.29-1.45c4.67,0,7.14,3.17,7.14,8.65v10.43c0,2.96,0.27,3.17,2.9,3.6v1.83
			H242.89z"/>
		<path class="st0" d="M262.95,358.67c-2.52,0-4.35-1.88-4.35-4.51c0-2.58,1.82-4.46,4.35-4.46s4.4,1.88,4.4,4.46
			C267.35,356.79,265.53,358.67,262.95,358.67z"/>
		<path class="st0" d="M300.67,358.03v-1.83c2.15-0.32,2.52-0.54,2.52-3.82v-9.3c0-4.46-2.09-5.27-3.76-5.27
			c-1.07,0-2.31,0.32-3.97,1.67c0.05,0.65,0.11,1.45,0.11,2.26v10.86c0,3.01,0.16,3.28,2.63,3.6v1.83h-12.07v-1.83
			c2.36-0.32,2.58-0.48,2.58-3.6v-9.78c0-3.82-1.5-5.05-3.49-5.05c-1.34,0-2.63,0.48-4.13,1.61v13.22c0,3.01,0.32,3.28,2.31,3.6
			v1.83h-12.29v-1.83c2.95-0.38,3.11-0.59,3.11-3.82v-11.39c0-3.01-0.05-3.49-2.58-3.87v-1.72c3-0.32,6.06-1.08,9.44-2.04
			c0,1.29,0,2.79,0,4.03c1.18-0.81,2.15-1.5,3.27-2.2c1.66-1.02,2.95-1.67,4.56-1.67c3,0,4.99,1.61,6.01,4.08
			c1.29-0.97,2.36-1.72,3.7-2.63c1.18-0.75,2.68-1.45,4.29-1.45c4.67,0,7.14,3.17,7.14,8.65v10.43c0,2.96,0.27,3.17,2.9,3.6v1.83
			H300.67z"/>
		<path class="st0" d="M328.79,333.52c7.56,0,12.34,5.7,12.34,12.15c0,8.65-6.22,13.01-12.55,13.01c-8.1,0-12.71-6.13-12.71-12.41
			C315.86,338.03,322.62,333.52,328.79,333.52z M328.14,335.67c-2.31,0-4.56,2.42-4.56,9.03c0,6.66,2.2,11.77,5.58,11.77
			c2.04,0,4.24-1.4,4.24-9.24C333.4,339.75,331.47,335.67,328.14,335.67z"/>
		<path class="st0" d="M359.8,358.03v-1.83c2.25-0.32,2.41-0.54,2.41-4.25v-9.19c0-3.82-1.88-5-3.75-5c-1.4,0-2.58,0.54-4.02,1.61
			v13.01c0,3.28,0.21,3.49,2.42,3.82v1.83H344.4v-1.83c2.79-0.48,3.11-0.54,3.11-4.03v-11.18c0-3.22-0.43-3.39-2.79-3.87v-1.72
			c3.11-0.38,6.81-1.08,9.82-2.04c-0.05,0.75-0.11,2.63-0.11,3.87c1.07-0.75,2.2-1.56,3.43-2.31c1.61-0.97,2.63-1.4,4.19-1.4
			c4.35,0,7.08,3.17,7.08,8.65v10.16c0,3.33,0.32,3.49,2.9,3.87v1.83H359.8z"/>
		<path class="st0" d="M396.07,352.76c-3.27,4.84-7.57,5.91-9.82,5.91c-7.19,0-11.27-5.32-11.27-11.72c0-3.76,1.77-7.47,4.02-9.67
			c2.42-2.42,5.42-3.76,8.37-3.76c5.26,0,8.91,4.35,8.85,8.76c0,0.91-0.05,1.83-0.7,1.99c-1.02,0.27-8.58,0.65-13.79,0.86
			c0.21,5.7,3.38,8.6,7.24,8.6c2.09,0,4.18-0.75,6.12-2.42L396.07,352.76z M386.3,335.72c-2.15,0-3.97,2.53-4.29,6.77
			c2.2-0.05,4.24-0.11,6.49-0.16c0.75-0.05,1.07-0.16,1.07-1.08C389.63,338.57,388.39,335.72,386.3,335.72z"/>
		<path class="st0" d="M423.54,335.99c-2.58,0.38-3.11,0.91-4.45,3.82c-1.34,2.79-2.84,6.83-5.96,14.29
			c-3.65,8.71-4.67,12.25-5.69,15.32c-0.38,1.18-1.02,1.56-1.93,1.56c-2.09,0-4.24-1.56-4.24-3.44c0-0.86,0.32-1.29,1.45-1.99
			c2.09-1.18,3.54-2.2,4.51-3.87c0.54-0.91,1.13-2.36,1.34-3.01c0.21-0.75,0.11-1.24-0.21-2.04c-2.79-7.74-6.22-15.1-7.19-17.36
			c-0.97-2.26-1.61-2.9-4.18-3.28v-1.83h13.41v1.83c-2.31,0.38-2.68,0.75-2.09,2.42l4.19,11.34c1.18-2.96,3.11-7.9,4.08-10.91
			c0.54-1.72-0.16-2.42-2.84-2.85v-1.83h9.82V335.99z"/>
	</g>
</g>
<g>
	<g>
	</g>
</g>
<g>
	<g>
		<path class="st1" d="M196.91,386.96c-0.26,0.88-0.73,2.19-1,2.75c-0.53,0.11-1.95,0.44-3.34,0.44c-4.36,0-6.58-2.9-6.58-6.09
			c0-3.72,2.83-6.29,6.91-6.29c1.57,0,2.84,0.33,3.45,0.42c0.07,0.82,0.2,1.91,0.35,2.83l-0.57,0.13c-0.36-1.22-0.8-1.97-1.73-2.35
			c-0.47-0.22-1.22-0.35-1.91-0.35c-3.01,0-4.59,2.22-4.59,5.23c0,3.52,1.82,5.78,4.78,5.78c1.86,0,2.77-0.86,3.7-2.68
			L196.91,386.96z"/>
		<path class="st1" d="M202.43,381.65c2.28,0,3.98,1.73,3.98,4.08c0,2.95-2.19,4.36-3.98,4.36c-2.52,0-4.05-2.02-4.05-4.07
			C198.38,383.05,200.7,381.65,202.43,381.65z M202.21,382.27c-1.11,0-2.12,1.08-2.12,3.19c0,2.32,1.02,3.99,2.52,3.99
			c1.13,0,2.08-0.82,2.08-3.32C204.69,384,203.81,382.27,202.21,382.27z"/>
		<path class="st1" d="M212.93,389.87v-0.51c1.06-0.11,1.17-0.24,1.17-1.48v-3.01c0-1.28-0.46-2.13-1.66-2.13
			c-0.75,0-1.46,0.44-2.02,0.95v4.27c0,1.26,0.11,1.29,1.19,1.4v0.51h-3.94v-0.51c1.2-0.13,1.31-0.2,1.31-1.4v-3.76
			c0-1.19-0.13-1.24-1.11-1.4v-0.47c0.89-0.15,1.79-0.38,2.55-0.73c0,0.42,0,1,0,1.44c0.36-0.26,0.77-0.53,1.24-0.84
			c0.51-0.33,0.98-0.55,1.51-0.55c1.46,0,2.37,1.08,2.37,2.84v3.46c0,1.24,0.11,1.29,1.17,1.4v0.51H212.93z"/>
		<path class="st1" d="M221.35,389.86c-0.31,0.16-0.6,0.24-0.78,0.24c-1.17,0-1.79-0.71-1.79-2.17v-5.31h-1.26l-0.07-0.22l0.49-0.53
			h0.84v-1.53c0.35-0.36,0.88-0.84,1.22-1.2l0.27,0.04c-0.04,0.77-0.05,1.82-0.05,2.7h2.08c0.16,0.18,0.11,0.58-0.11,0.75h-1.97
			v4.67c0,1.48,0.58,1.75,1.06,1.75c0.44,0,0.86-0.16,1.11-0.29l0.16,0.47L221.35,389.86z"/>
		<path class="st1" d="M227.51,389.87h-4.19v-0.51c1.15-0.11,1.26-0.2,1.26-1.39v-3.79c0-1.2-0.07-1.26-1.13-1.39v-0.46
			c0.89-0.15,1.71-0.36,2.57-0.75c0,0.6,0,1.4,0,2.01c0.64-0.95,1.4-1.95,2.32-1.95c0.67,0,1.06,0.42,1.06,0.88
			c0,0.42-0.29,0.82-0.62,1c-0.18,0.11-0.33,0.09-0.47-0.04c-0.27-0.27-0.49-0.46-0.82-0.46c-0.38,0-1.06,0.57-1.46,1.5v3.43
			c0,1.2,0.09,1.29,1.5,1.4V389.87z"/>
		<path class="st1" d="M234.23,381.65c2.28,0,3.98,1.73,3.98,4.08c0,2.95-2.19,4.36-3.98,4.36c-2.52,0-4.05-2.02-4.05-4.07
			C230.19,383.05,232.5,381.65,234.23,381.65z M234.02,382.27c-1.11,0-2.12,1.08-2.12,3.19c0,2.32,1.02,3.99,2.52,3.99
			c1.13,0,2.08-0.82,2.08-3.32C236.5,384,235.62,382.27,234.02,382.27z"/>
		<path class="st1" d="M239.23,389.87v-0.51c1.17-0.11,1.31-0.2,1.31-1.4v-8.73c0-1.11-0.09-1.22-1.26-1.37v-0.47
			c0.98-0.11,2.12-0.4,2.7-0.62c0,0.86,0,1.73,0,2.59v8.61c0,1.2,0.11,1.29,1.29,1.4v0.51H239.23z"/>
		<path class="st1" d="M250.09,390.09c-0.27,0-0.67-0.15-0.86-0.35c-0.24-0.24-0.35-0.49-0.44-0.82c-0.73,0.49-1.62,1.17-2.19,1.17
			c-1.29,0-2.22-1.08-2.22-2.24c0-0.89,0.49-1.48,1.5-1.82c1.11-0.38,2.48-0.86,2.88-1.19v-0.36c0-1.29-0.66-2.04-1.6-2.04
			c-0.42,0-0.67,0.2-0.86,0.42c-0.2,0.25-0.33,0.66-0.49,1.19c-0.09,0.29-0.26,0.42-0.53,0.42c-0.35,0-0.8-0.36-0.8-0.8
			c0-0.26,0.24-0.47,0.6-0.73c0.53-0.38,1.59-1.06,2.63-1.28c0.55,0,1.11,0.16,1.53,0.49c0.64,0.55,0.93,1.17,0.93,2.12v3.52
			c0,0.84,0.31,1.09,0.64,1.09c0.22,0,0.46-0.09,0.66-0.2l0.18,0.51L250.09,390.09z M248.76,385.48c-0.4,0.2-1.28,0.58-1.7,0.77
			c-0.69,0.31-1.11,0.66-1.11,1.33c0,0.97,0.73,1.4,1.31,1.4c0.47,0,1.13-0.29,1.5-0.66C248.76,387.47,248.76,386.34,248.76,385.48z
			"/>
		<path class="st1" d="M260.23,389.86c-0.31,0.16-0.6,0.24-0.78,0.24c-1.17,0-1.79-0.71-1.79-2.17v-5.31h-1.26l-0.07-0.22l0.49-0.53
			h0.84v-1.53c0.35-0.36,0.88-0.84,1.22-1.2l0.27,0.04c-0.04,0.77-0.05,1.82-0.05,2.7h2.08c0.16,0.18,0.11,0.58-0.11,0.75h-1.97
			v4.67c0,1.48,0.58,1.75,1.06,1.75c0.44,0,0.86-0.16,1.11-0.29l0.16,0.47L260.23,389.86z"/>
		<path class="st1" d="M271.02,389.45c-0.88,0.13-1.86,0.36-2.79,0.64c0-0.29,0-0.95,0-1.4c-0.98,0.82-1.79,1.4-2.79,1.4
			c-1.22,0-2.28-0.75-2.28-2.73v-3.54c0-0.98-0.15-1.09-0.6-1.19l-0.51-0.09v-0.47c0.78-0.04,1.99-0.22,2.61-0.33
			c-0.05,0.58-0.05,1.46-0.05,2.66v2.48c0,1.6,0.84,2.06,1.66,2.06c0.67,0,1.35-0.29,1.97-0.88v-4.25c0-0.98-0.22-1.11-0.84-1.2
			l-0.58-0.07v-0.47c1.17-0.05,2.44-0.26,2.86-0.33v6.11c0,0.91,0.15,1.04,0.84,1.08l0.51,0.02V389.45z"/>
		<path class="st1" d="M276.69,384.04c-0.33-1.06-0.8-1.79-1.91-1.79c-0.64,0-1.13,0.46-1.13,1.19c0,0.78,0.53,1.15,1.55,1.62
			c1.57,0.75,2.35,1.29,2.35,2.5c0,1.68-1.53,2.53-2.97,2.53c-0.95,0-1.79-0.29-2.17-0.51c-0.09-0.53-0.26-1.53-0.33-2.13l0.53-0.09
			c0.33,1.17,0.97,2.11,2.24,2.11c0.69,0,1.28-0.47,1.28-1.24c0-0.82-0.49-1.24-1.46-1.71c-1.28-0.62-2.32-1.2-2.32-2.52
			c0-1.33,1.13-2.35,2.84-2.35c0.77,0,1.39,0.18,1.75,0.24c0.05,0.44,0.18,1.59,0.27,2.02L276.69,384.04z"/>
		<path class="st1" d="M287.93,389.87v-0.51c1.08-0.11,1.2-0.18,1.2-1.31v-4.49c0-0.82-0.06-0.95-0.97-0.95h-2.52v5.43
			c0,1.09,0.13,1.2,1.28,1.31v0.51h-4.01v-0.51c1.15-0.11,1.29-0.2,1.29-1.31v-5.43h-1.28l-0.07-0.22l0.38-0.53h0.97
			c0-1.93,0.55-3.17,1.73-4.12c0.75-0.6,1.62-0.93,2.32-0.98c1.22,0,1.84,0.55,2.06,0.86c0.11,0.15,0.15,0.31,0.15,0.46
			c-0.02,0.25-0.29,0.6-0.53,0.77c-0.24,0.15-0.44,0.15-0.66-0.09c-0.38-0.42-1.02-1.04-1.88-1.04c-0.53,0-0.89,0.22-1.11,0.58
			c-0.35,0.46-0.64,1.53-0.64,3.03v0.55h1.48c1.46,0,2.61-0.05,3.45-0.24v6.42c0,1.13,0.13,1.2,1.31,1.31v0.51H287.93z"/>
		<path class="st1" d="M298.05,389.87v-0.51c1.06-0.11,1.17-0.24,1.17-1.48v-3.01c0-1.28-0.46-2.13-1.66-2.13
			c-0.75,0-1.46,0.44-2.02,0.95v4.27c0,1.26,0.11,1.29,1.19,1.4v0.51h-3.94v-0.51c1.2-0.13,1.31-0.2,1.31-1.4v-3.76
			c0-1.19-0.13-1.24-1.11-1.4v-0.47c0.89-0.15,1.79-0.38,2.55-0.73c0,0.42,0,1,0,1.44c0.36-0.26,0.77-0.53,1.24-0.84
			c0.51-0.33,0.98-0.55,1.51-0.55c1.46,0,2.37,1.08,2.37,2.84v3.46c0,1.24,0.11,1.29,1.17,1.4v0.51H298.05z"/>
		<path class="st1" d="M308.75,390.09c-0.27,0-0.67-0.15-0.86-0.35c-0.24-0.24-0.35-0.49-0.44-0.82c-0.73,0.49-1.62,1.17-2.19,1.17
			c-1.29,0-2.22-1.08-2.22-2.24c0-0.89,0.49-1.48,1.5-1.82c1.11-0.38,2.48-0.86,2.88-1.19v-0.36c0-1.29-0.66-2.04-1.61-2.04
			c-0.42,0-0.67,0.2-0.86,0.42c-0.2,0.25-0.33,0.66-0.49,1.19c-0.09,0.29-0.26,0.42-0.53,0.42c-0.35,0-0.8-0.36-0.8-0.8
			c0-0.26,0.24-0.47,0.6-0.73c0.53-0.38,1.59-1.06,2.63-1.28c0.55,0,1.11,0.16,1.53,0.49c0.64,0.55,0.93,1.17,0.93,2.12v3.52
			c0,0.84,0.31,1.09,0.64,1.09c0.22,0,0.46-0.09,0.66-0.2l0.18,0.51L308.75,390.09z M307.42,385.48c-0.4,0.2-1.28,0.58-1.7,0.77
			c-0.69,0.31-1.11,0.66-1.11,1.33c0,0.97,0.73,1.4,1.31,1.4c0.47,0,1.13-0.29,1.5-0.66C307.42,387.47,307.42,386.34,307.42,385.48z
			"/>
		<path class="st1" d="M316.29,389.87v-0.51c1.06-0.11,1.17-0.24,1.17-1.48v-3.01c0-1.28-0.46-2.13-1.66-2.13
			c-0.75,0-1.46,0.44-2.02,0.95v4.27c0,1.26,0.11,1.29,1.19,1.4v0.51h-3.94v-0.51c1.2-0.13,1.31-0.2,1.31-1.4v-3.76
			c0-1.19-0.13-1.24-1.11-1.4v-0.47c0.89-0.15,1.79-0.38,2.55-0.73c0,0.42,0,1,0,1.44c0.37-0.26,0.77-0.53,1.24-0.84
			c0.51-0.33,0.98-0.55,1.51-0.55c1.46,0,2.37,1.08,2.37,2.84v3.46c0,1.24,0.11,1.29,1.17,1.4v0.51H316.29z"/>
		<path class="st1" d="M328.09,387.54c-0.24,0.71-0.6,1.75-0.78,2.33h-6.13l-0.11-0.29c1.59-2.3,3.14-4.72,4.63-7.07
			c-0.09,0-1.73,0-1.77,0c-1.29,0-1.51,0.2-2.22,1.77l-0.51-0.16c0.2-0.69,0.44-1.82,0.57-2.63h0.4c0.11,0.27,0.35,0.38,1.02,0.38
			h4.3l0.11,0.27c-1.44,2.19-3.04,4.67-4.56,7.09h1.95c1.39,0,1.8-0.36,2.63-1.9L328.09,387.54z"/>
		<path class="st1" d="M334.72,390.09c-0.27,0-0.67-0.15-0.86-0.35c-0.24-0.24-0.35-0.49-0.44-0.82c-0.73,0.49-1.62,1.17-2.19,1.17
			c-1.29,0-2.22-1.08-2.22-2.24c0-0.89,0.49-1.48,1.5-1.82c1.11-0.38,2.48-0.86,2.88-1.19v-0.36c0-1.29-0.66-2.04-1.6-2.04
			c-0.42,0-0.67,0.2-0.86,0.42c-0.2,0.25-0.33,0.66-0.49,1.19c-0.09,0.29-0.25,0.42-0.53,0.42c-0.35,0-0.8-0.36-0.8-0.8
			c0-0.26,0.24-0.47,0.6-0.73c0.53-0.38,1.59-1.06,2.63-1.28c0.55,0,1.11,0.16,1.53,0.49c0.64,0.55,0.93,1.17,0.93,2.12v3.52
			c0,0.84,0.31,1.09,0.64,1.09c0.22,0,0.46-0.09,0.66-0.2l0.18,0.51L334.72,390.09z M333.39,385.48c-0.4,0.2-1.28,0.58-1.7,0.77
			c-0.69,0.31-1.11,0.66-1.11,1.33c0,0.97,0.73,1.4,1.31,1.4c0.47,0,1.13-0.29,1.5-0.66C333.39,387.47,333.39,386.34,333.39,385.48z
			"/>
		<path class="st1" d="M341.79,384.04c-0.33-1.06-0.8-1.79-1.92-1.79c-0.64,0-1.13,0.46-1.13,1.19c0,0.78,0.53,1.15,1.55,1.62
			c1.57,0.75,2.35,1.29,2.35,2.5c0,1.68-1.53,2.53-2.97,2.53c-0.95,0-1.79-0.29-2.17-0.51c-0.09-0.53-0.26-1.53-0.33-2.13l0.53-0.09
			c0.33,1.17,0.97,2.11,2.24,2.11c0.69,0,1.28-0.47,1.28-1.24c0-0.82-0.49-1.24-1.46-1.71c-1.28-0.62-2.32-1.2-2.32-2.52
			c0-1.33,1.13-2.35,2.84-2.35c0.77,0,1.39,0.18,1.75,0.24c0.05,0.44,0.18,1.59,0.27,2.02L341.79,384.04z"/>
		<path class="st1" d="M344.03,391.51c0.82-0.38,1.46-0.88,1.46-1.57c0-0.64-0.53-0.82-1.17-0.98c-0.11-0.02-0.29-0.24-0.29-0.57
			c0-0.46,0.35-0.91,1.02-0.91c0.66,0,1.55,0.6,1.55,1.93c0,1.44-1.28,2.32-2.33,2.63L344.03,391.51z"/>
		<path class="st1" d="M353.51,381.87v-0.49c0-1.31,0.46-2.66,1.6-3.65c0.64-0.57,1.33-0.88,2.04-0.97
			c0.62,0.02,1.19,0.24,1.48,0.58c0.16,0.2,0.2,0.38,0.11,0.64c-0.05,0.18-0.25,0.44-0.44,0.58c-0.2,0.13-0.35,0.09-0.53-0.04
			c-0.37-0.33-0.88-0.75-1.48-0.75c-1.35,0-1.35,1.84-1.35,3.23v0.86h1.93c0.11,0.16,0.02,0.62-0.18,0.75h-1.75v5.27
			c0,1.31,0.2,1.33,1.57,1.48v0.51h-4.28v-0.51c1.15-0.11,1.28-0.18,1.28-1.37v-5.38h-1.29l-0.07-0.2l0.4-0.55H353.51z"/>
		<path class="st1" d="M361.64,381.65c2.28,0,3.97,1.73,3.97,4.08c0,2.95-2.19,4.36-3.97,4.36c-2.52,0-4.05-2.02-4.05-4.07
			C357.59,383.05,359.91,381.65,361.64,381.65z M361.42,382.27c-1.11,0-2.12,1.08-2.12,3.19c0,2.32,1.02,3.99,2.52,3.99
			c1.13,0,2.08-0.82,2.08-3.32C363.9,384,363.03,382.27,361.42,382.27z"/>
		<path class="st1" d="M371.1,389.87h-4.19v-0.51c1.15-0.11,1.26-0.2,1.26-1.39v-3.79c0-1.2-0.07-1.26-1.13-1.39v-0.46
			c0.89-0.15,1.71-0.36,2.57-0.75c0,0.6,0,1.4,0,2.01c0.64-0.95,1.4-1.95,2.32-1.95c0.67,0,1.06,0.42,1.06,0.88
			c0,0.42-0.29,0.82-0.62,1c-0.18,0.11-0.33,0.09-0.47-0.04c-0.27-0.27-0.49-0.46-0.82-0.46c-0.38,0-1.06,0.57-1.46,1.5v3.43
			c0,1.2,0.09,1.29,1.5,1.4V389.87z"/>
		<path class="st1" d="M373.69,382.32c0.98-0.15,1.9-0.38,2.68-0.71c0,0.82,0,1.64,0,2.48v3.77c0,1.22-0.07,1.99-0.42,2.97
			c-0.64,1.82-1.77,3.19-2.19,3.56c-0.18,0.15-0.33,0.2-0.47,0.2c-0.27,0-0.67-0.38-0.67-0.82c0-0.24,0.07-0.35,0.29-0.42
			c0.67-0.18,1.15-0.36,1.4-0.69c0.22-0.26,0.36-0.66,0.47-1.28c0.11-0.77,0.15-1.86,0.15-3.54v-3.61c0-1.22-0.09-1.29-1.24-1.46
			V382.32z M375.57,379.79c-0.51,0-0.93-0.44-0.93-0.93c0-0.56,0.42-0.97,0.95-0.97c0.49,0,0.89,0.4,0.89,0.97
			C376.48,379.35,376.08,379.79,375.57,379.79z"/>
		<path class="st1" d="M384.23,390.09c-0.27,0-0.67-0.15-0.86-0.35c-0.24-0.24-0.35-0.49-0.44-0.82c-0.73,0.49-1.62,1.17-2.19,1.17
			c-1.29,0-2.22-1.08-2.22-2.24c0-0.89,0.49-1.48,1.5-1.82c1.11-0.38,2.48-0.86,2.88-1.19v-0.36c0-1.29-0.66-2.04-1.6-2.04
			c-0.42,0-0.67,0.2-0.86,0.42c-0.2,0.25-0.33,0.66-0.49,1.19c-0.09,0.29-0.25,0.42-0.53,0.42c-0.35,0-0.8-0.36-0.8-0.8
			c0-0.26,0.24-0.47,0.6-0.73c0.53-0.38,1.59-1.06,2.63-1.28c0.55,0,1.11,0.16,1.53,0.49c0.64,0.55,0.93,1.17,0.93,2.12v3.52
			c0,0.84,0.31,1.09,0.64,1.09c0.22,0,0.46-0.09,0.66-0.2l0.18,0.51L384.23,390.09z M382.9,385.48c-0.4,0.2-1.28,0.58-1.7,0.77
			c-0.69,0.31-1.11,0.66-1.11,1.33c0,0.97,0.73,1.4,1.31,1.4c0.47,0,1.13-0.29,1.5-0.66C382.9,387.47,382.9,386.34,382.9,385.48z"/>
		<path class="st1" d="M394.36,389.86c-0.31,0.16-0.6,0.24-0.78,0.24c-1.17,0-1.79-0.71-1.79-2.17v-5.31h-1.26l-0.07-0.22l0.49-0.53
			h0.84v-1.53c0.35-0.36,0.88-0.84,1.22-1.2l0.27,0.04c-0.04,0.77-0.05,1.82-0.05,2.7h2.08c0.16,0.18,0.11,0.58-0.11,0.75h-1.97
			v4.67c0,1.48,0.58,1.75,1.06,1.75c0.44,0,0.86-0.16,1.11-0.29l0.16,0.47L394.36,389.86z"/>
		<path class="st1" d="M405.15,389.45c-0.88,0.13-1.86,0.36-2.79,0.64c0-0.29,0-0.95,0-1.4c-0.99,0.82-1.79,1.4-2.79,1.4
			c-1.22,0-2.28-0.75-2.28-2.73v-3.54c0-0.98-0.15-1.09-0.6-1.19l-0.51-0.09v-0.47c0.78-0.04,1.99-0.22,2.61-0.33
			c-0.05,0.58-0.05,1.46-0.05,2.66v2.48c0,1.6,0.84,2.06,1.66,2.06c0.67,0,1.35-0.29,1.97-0.88v-4.25c0-0.98-0.22-1.11-0.84-1.2
			l-0.58-0.07v-0.47c1.17-0.05,2.44-0.26,2.86-0.33v6.11c0,0.91,0.15,1.04,0.84,1.08l0.51,0.02V389.45z"/>
		<path class="st1" d="M411.57,381.87v-0.49c0-1.31,0.46-2.66,1.6-3.65c0.64-0.57,1.33-0.88,2.04-0.97
			c0.62,0.02,1.19,0.24,1.48,0.58c0.16,0.2,0.2,0.38,0.11,0.64c-0.05,0.18-0.25,0.44-0.44,0.58c-0.2,0.13-0.35,0.09-0.53-0.04
			c-0.37-0.33-0.88-0.75-1.48-0.75c-1.35,0-1.35,1.84-1.35,3.23v0.86h1.93c0.11,0.16,0.02,0.62-0.18,0.75h-1.75v5.27
			c0,1.31,0.2,1.33,1.57,1.48v0.51h-4.28v-0.51c1.15-0.11,1.28-0.18,1.28-1.37v-5.38h-1.29l-0.07-0.2l0.4-0.55H411.57z"/>
		<path class="st1" d="M424.38,389.45c-0.88,0.13-1.86,0.36-2.79,0.64c0-0.29,0-0.95,0-1.4c-0.99,0.82-1.79,1.4-2.79,1.4
			c-1.22,0-2.28-0.75-2.28-2.73v-3.54c0-0.98-0.15-1.09-0.6-1.19l-0.51-0.09v-0.47c0.78-0.04,1.99-0.22,2.61-0.33
			c-0.05,0.58-0.05,1.46-0.05,2.66v2.48c0,1.6,0.84,2.06,1.66,2.06c0.67,0,1.35-0.29,1.97-0.88v-4.25c0-0.98-0.22-1.11-0.84-1.2
			l-0.58-0.07v-0.47c1.17-0.05,2.44-0.26,2.86-0.33v6.11c0,0.91,0.15,1.04,0.84,1.08l0.51,0.02V389.45z"/>
		<path class="st1" d="M428.86,389.86c-0.31,0.16-0.6,0.24-0.78,0.24c-1.17,0-1.79-0.71-1.79-2.17v-5.31h-1.26l-0.07-0.22l0.49-0.53
			h0.84v-1.53c0.35-0.36,0.88-0.84,1.22-1.2l0.27,0.04c-0.04,0.77-0.05,1.82-0.05,2.7h2.08c0.16,0.18,0.11,0.58-0.11,0.75h-1.97
			v4.67c0,1.48,0.58,1.75,1.06,1.75c0.44,0,0.86-0.16,1.11-0.29l0.16,0.47L428.86,389.86z"/>
		<path class="st1" d="M439.66,389.45c-0.88,0.13-1.86,0.36-2.79,0.64c0-0.29,0-0.95,0-1.4c-0.99,0.82-1.79,1.4-2.79,1.4
			c-1.22,0-2.28-0.75-2.28-2.73v-3.54c0-0.98-0.15-1.09-0.6-1.19l-0.51-0.09v-0.47c0.78-0.04,1.99-0.22,2.61-0.33
			c-0.05,0.58-0.05,1.46-0.05,2.66v2.48c0,1.6,0.84,2.06,1.66,2.06c0.67,0,1.35-0.29,1.97-0.88v-4.25c0-0.98-0.22-1.11-0.84-1.2
			l-0.58-0.07v-0.47c1.17-0.05,2.44-0.26,2.86-0.33v6.11c0,0.91,0.15,1.04,0.84,1.08l0.51,0.02V389.45z"/>
		<path class="st1" d="M444.76,389.87h-4.19v-0.51c1.15-0.11,1.26-0.2,1.26-1.39v-3.79c0-1.2-0.07-1.26-1.13-1.39v-0.46
			c0.89-0.15,1.71-0.36,2.57-0.75c0,0.6,0,1.4,0,2.01c0.64-0.95,1.4-1.95,2.32-1.95c0.67,0,1.06,0.42,1.06,0.88
			c0,0.42-0.29,0.82-0.62,1c-0.18,0.11-0.33,0.09-0.47-0.04c-0.27-0.27-0.49-0.46-0.82-0.46c-0.38,0-1.06,0.57-1.46,1.5v3.43
			c0,1.2,0.09,1.29,1.5,1.4V389.87z"/>
		<path class="st1" d="M451.48,381.65c2.28,0,3.97,1.73,3.97,4.08c0,2.95-2.19,4.36-3.97,4.36c-2.52,0-4.05-2.02-4.05-4.07
			C447.44,383.05,449.75,381.65,451.48,381.65z M451.27,382.27c-1.11,0-2.12,1.08-2.12,3.19c0,2.32,1.02,3.99,2.52,3.99
			c1.13,0,2.08-0.82,2.08-3.32C453.75,384,452.87,382.27,451.27,382.27z"/>
		<path class="st1" d="M458.08,390.13c-0.66,0-1.11-0.47-1.11-1.17c0-0.66,0.46-1.17,1.11-1.17s1.15,0.51,1.15,1.17
			C459.23,389.65,458.74,390.13,458.08,390.13z"/>
	</g>
</g>
<g>
	<path class="st0" d="M321.03,250.17c0.05,0.09,0.09,0.18,0.15,0.27c0.08,0.14,0.17,0.27,0.26,0.39
		C321.35,250.53,321.21,250.32,321.03,250.17z M318.89,252.44c-0.71,0.06-1.43,0.15-2.13,0.27c0.06,0.17,0.14,0.35,0.21,0.52
		c1.02-0.24,2.08-0.43,3.11-0.64c-0.02-0.06-0.05-0.14-0.06-0.21C319.65,252.4,319.27,252.41,318.89,252.44z"/>
	<path class="st0" d="M362.41,240.93c-0.14,0.68-0.15,1.38-0.23,2.08c-0.14,1.53-0.15,3.11-0.49,4.6c-1.79,7.88-9.27,13.44-16.78,12
		c-1.87-0.36-3.68-1.12-5.51-1.75c-1.34-0.46-2.66-0.97-3.98-1.46c-0.03,0.09-0.06,0.17-0.09,0.26c0.85,0.44,1.7,0.88,2.55,1.32
		c-3.78-0.46-7.28-1.72-10.62-3.49c3.31,3.28,7.58,4.74,11.65,6.64c-1.41-0.17-2.79-0.41-4.13-0.81
		c-5.47-1.66-10.16-4.51-13.35-9.49c-0.09-0.12-0.18-0.26-0.26-0.39c-0.06-0.09-0.11-0.18-0.15-0.27
		c-2.98-5.06-2.64-10.54,0.93-14.78c0.82-0.99,1.85-1.79,3.04-2.93c-0.52,0.2-0.73,0.26-0.94,0.35c-7.44,3.27-9.74,11.3-7.9,18.08
		c-3.93,1.15-7.66,2.83-11.12,5.15c-2.48,1.67-5.13,3.14-6.9,5.8c-0.33,0.29-0.67,0.58-0.99,0.87c-4.68,4.24-8.58,9.19-12.56,14.07
		c-1.35,1.64-2.42,3.51-3.62,5.29c0.09,0.06,0.18,0.12,0.27,0.2c0.59-0.84,1.18-1.66,1.78-2.48c0.59-0.79,1.18-1.58,1.79-2.35
		c0.61-0.76,1.25-1.49,1.88-2.23c-1.84,3.65-3.54,7.28-4.15,11.35c0.71-0.97,1.28-2.07,2.02-3.02c0.53-0.67,1.05-1.35,1.58-2.02
		c-1.22,3.48-0.71,6.96,1.55,10.33c0.87,1.31,1.85,2.55,2.93,3.69c0.02,0.02,0.03,0.03,0.05,0.05c3.68-3.49,7.35-6.97,11.01-10.47
		c-1.08-2.31-2.14-4.63-3.22-6.94c6.58-5.47,13.14-10.94,19.72-16.4c-0.68-1.22-1.35-2.43-2.02-3.65c2.98-0.05,5.95-0.08,8.93-0.11
		c-1.35,3.27-2.7,6.53-4.04,9.8c-0.62-1.26-1.25-2.52-1.85-3.78c-5.85,4.83-11.68,9.68-17.53,14.52c1.17,2.04,2.34,4.07,3.49,6.11
		c-4.39,4.25-8.81,8.49-13.22,12.74c0.46,0.96,0.7,2.01,0.73,3.16c0.06,1.99,0.12,3.98,0.27,5.97c0.11,1.58,0.35,3.17,0.55,4.75
		c0.3-0.09,0.35-0.15,0.36-0.2c0.02-0.36,0.05-0.73,0.05-1.08c0.05-3.22,0.81-6.24,2.32-9.02c1.96-3.58,4.41-6.68,8.2-8.31
		c2.72-1.17,4.69-0.27,5.91,2.54c0.65,1.52,1.35,3.04,2.1,4.51c0.74,1.46,1.93,2.4,3.58,2.49c1.61,0.09,3.24,0.14,4.86,0.12
		c1.5,0,2.7,0.56,3.63,1.76c0.71,0.94,1.44,1.87,2.17,2.81c-0.06-0.85-0.2-1.66-0.56-2.32c-1.49-2.7-2.98-5.39-4.59-8
		c-1.79-2.93-3.62-5.83-4.56-9.2c-0.67-2.42-0.96-5.27-0.62-6.59c0.05,0.12,0.14,0.21,0.15,0.32c0.97,5.67,3.21,10.77,6.12,15.63
		c2.55,4.25,5.24,8.46,5.42,13.75c0.05,1.4,0.84,1.64,2.01,0.7c1.63-1.34,3.27-1.46,5.07-0.55c0.49,0.24,0.97,0.49,1.47,0.68
		c3.51,1.35,6.96,1.32,10.24-0.67c1.43-0.87,1.59-1.96,0.77-3.45c-0.33-0.61-0.71-1.26-0.84-1.93c-0.52-2.69-1.05-5.39-1.37-8.11
		c-0.53-4.59-0.84-9.2-2.48-13.56c-1.26-3.33-2.76-6.56-4.13-9.86c-0.18-0.39-0.3-0.82-0.46-1.23c0.08-0.05,0.15-0.08,0.23-0.11
		c0.67,0.9,1.34,1.79,2.01,2.7c0.08-0.05,0.15-0.09,0.21-0.15c-1.22-3.07-2.45-6.14-3.68-9.2c0.5,0.15,0.81,0.44,1.09,0.73
		c1.7,1.82,2.79,4.01,3.43,6.43c1.34,5.1,2.61,10.22,3.93,15.33c0.05,0.23,0.17,0.43,0.26,0.64c0.47-3.11,0.97-6.12,2.34-8.9
		c0.14-0.27,0.18-0.61,0.23-0.91c0.67-4.36-0.24-8.26-2.42-11.76c5.03-0.55,9.28-3.04,12.79-7.12
		C363.6,254.54,364.83,248.08,362.41,240.93z M316.97,253.23c-0.08-0.17-0.15-0.35-0.21-0.52c0.7-0.12,1.41-0.21,2.13-0.27
		c0.38-0.03,0.76-0.05,1.14-0.06c0.02,0.08,0.05,0.15,0.06,0.21C319.05,252.81,317.98,252.99,316.97,253.23z M326.85,277.66
		c0.91,0.67,1.93,1.15,2.89,1.73c0.26,0.15,0.5,0.33,0.79,0.52c-1.4,0.84-3.21,0.52-4.19-0.76c-1.25-1.61-1.5-3.49-1.02-5.44
		c0.39-1.53,1.58-1.88,2.72-0.81c0.73,0.68,1.37,1.52,1.93,2.37c0.44,0.68,0.93,0.97,1.72,0.85c2.16-0.32,2.87,0.11,3.52,2.28
		c0.44,1.46,0.68,3.01,1,4.51c-0.14,0.05-0.27,0.11-0.41,0.15c-0.36-0.68-0.73-1.35-1.08-2.02c-0.82-1.59-1.88-2.87-3.49-3.71
		c-0.94-0.5-1.7-1.35-2.58-2.02c-0.58-0.44-1.2-1.03-1.91-0.26C326.14,275.73,326.17,277.14,326.85,277.66z M334.28,304.86
		c-0.59,0.81-0.73,1.96-1.09,2.99c-0.99-1.2-1-2.29-0.06-3.68c1.03-1.5,2.29-2.04,3.75-1.44
		C335.95,303.46,334.91,304.01,334.28,304.86z M337.94,305.29c0.77-0.15,1.69,1.32,1.64,2.79c-0.12,0.09-0.36,0.46-0.64,0.49
		c-0.74,0.09-2.25-1.64-2.04-2.42C337.02,305.77,337.55,305.35,337.94,305.29z"/>
	<path class="st0" d="M320.09,252.6c-1.03,0.21-2.1,0.39-3.11,0.64c-0.08-0.17-0.15-0.35-0.21-0.52c0.7-0.12,1.41-0.21,2.13-0.27
		c0.38-0.03,0.76-0.05,1.14-0.06C320.04,252.46,320.07,252.53,320.09,252.6z"/>
	<path class="st0" d="M320.09,252.6c-1.03,0.21-2.1,0.39-3.11,0.64c-0.08-0.17-0.15-0.35-0.21-0.52c0.7-0.12,1.41-0.21,2.13-0.27
		c0.38-0.03,0.76-0.05,1.14-0.06C320.04,252.46,320.07,252.53,320.09,252.6z"/>
	<path class="st0" d="M336.98,312.5c-2.06-0.17-4.13-0.34-6.19-0.5c-0.04-0.16-0.07-0.31-0.11-0.47c0.47-0.19,0.96-0.6,1.39-0.54
		c1.68,0.26,3.34,0.67,5.01,1.02C337.05,312.16,337.01,312.33,336.98,312.5z"/>
</g>
</svg>
